<svg xmlns="http://www.w3.org/2000/svg" viewBox="0 0 147.9 134.56">
  <defs>
    <style>
      .cls-1 {
        fill: pink
      }
    </style>
  </defs>
  <g id="图层_2" data-name="图层 2">
    <g id="图层_2-2" data-name="图层 2">
      <path class="cls-1" d="M71.84,0c7.13,5.16,14,17.56,14,21.51,15.92-11.74,41.82-11.19,49.17-5.92C132.31,26.89,132.31,31,132.31,31s9,6.37,12.62,7.46a43.1,43.1,0,0,1-16.68,23.93c8.45,6.48,21,26.45,19.54,36.22-10.87,1-15.15,4.5-15.37,5-.55,4.83-.22,16.68-.22,16.68-18.77,2.86-40.72-1.42-53.78-19.31-6.8,20.3-25.9,31.82-32.49,33.58a44,44,0,0,0-7.68-13.17c-2.63.44-8.89,1-12.95,2.85-6.7-12-6.81-36.87,6.36-48.07C7.74,72.22,1.87,59.54,0,55.92c4.72-2.72,8.18-6.26,9.05-8.56C7.9,43.11,6.17,38.88,3.84,36.49,23.1,20.09,40.34,28,43.19,29.3,42,19.76,51,4.83,53.18,2.34a19.1,19.1,0,0,0,9.67,4.87C66,5.94,71.84,0,71.84,0Z"/>
    </g>
  </g>
</svg>
